<?xml version="1.0" encoding="UTF-8"?>
<!DOCTYPE svg PUBLIC "-//W3C//DTD SVG 1.1//EN" "http://www.w3.org/Graphics/SVG/1.1/DTD/svg11.dtd">
<!-- Creator: CorelDRAW 2017 -->
<svg xmlns="http://www.w3.org/2000/svg" xml:space="preserve" width="11.287mm" height="11.287mm" version="1.1" style="shape-rendering:geometricPrecision; text-rendering:geometricPrecision; image-rendering:optimizeQuality; fill-rule:evenodd; clip-rule:evenodd"
viewBox="0 0 1128.7 1128.7"
 xmlns:xlink="http://www.w3.org/1999/xlink">
 <defs>
  <style type="text/css">
   <![CDATA[
    .fil0 {fill:#3B5998}
    .fil1 {fill:white}
   ]]>
  </style>
 </defs>
 <g id="Layer_x0020_1">
  <metadata id="CorelCorpID_0Corel-Layer"/>
  <circle class="fil0" cx="564.35" cy="564.35" r="500"/>
  <path class="fil1" d="M512.95 493.31c-0.47,0.24 -1.14,0.11 -1.41,0.7 -0.27,0.61 -1.09,0.53 -1.49,0.61l-72.73 0.53 0 88.97 67.36 -0.19c11.94,1.12 4.51,0.25 7.45,3.2l-0.12 224.42 89.29 0 0.6 -226.73c21.66,-2.98 62.38,4.44 79.09,-2.12l10.38 -87.56 -88.1 -0.02c-1.83,-21.13 -5,-71.65 7.01,-85.43 17.97,-20.62 47.39,-5.75 81.1,-11.62l-0.07 -79.06c-21.76,-2.5 -65.65,-1.99 -88.11,-1.18 -24.55,0.89 -48.44,16.26 -60.06,28.72 -7.95,8.52 -12.99,12.08 -19.33,24.09 -5.43,10.29 -9.7,21.26 -10.46,34.23 -1.7,28.76 1.07,59.46 -0.4,88.44z"/>
 </g>
</svg>
