<?xml version="1.0" encoding="UTF-8"?>
<!DOCTYPE svg PUBLIC "-//W3C//DTD SVG 1.1//EN" "http://www.w3.org/Graphics/SVG/1.1/DTD/svg11.dtd">
<!-- Creator: CorelDRAW 2017 -->
<svg xmlns="http://www.w3.org/2000/svg" xml:space="preserve" width="11.287mm" height="11.287mm" version="1.1" style="shape-rendering:geometricPrecision; text-rendering:geometricPrecision; image-rendering:optimizeQuality; fill-rule:evenodd; clip-rule:evenodd"
viewBox="0 0 1128.7 1128.7"
 xmlns:xlink="http://www.w3.org/1999/xlink">
 <defs>
  <style type="text/css">
   <![CDATA[
    .fil1 {fill:#FFFEFF}
    .fil0 {fill:url(#id0)}
   ]]>
  </style>
  <linearGradient id="id0" gradientUnits="userSpaceOnUse" x1="1050.1" y1="343.6" x2="226.42" y2="910.37">
   <stop offset="0" style="stop-opacity:1; stop-color:#9000DC"/>
   <stop offset="0.541176" style="stop-opacity:1; stop-color:#FC2083"/>
   <stop offset="1" style="stop-opacity:1; stop-color:#FEDB16"/>
  </linearGradient>
 </defs>
 <g id="Layer_x0020_1">
  <metadata id="CorelCorpID_0Corel-Layer"/>
  <g id="_1859670762944">
   <circle class="fil0" cx="564.35" cy="564.34" r="500"/>
   <g>
    <path class="fil1" d="M347.52 535.2c0.18,-24.94 -4.48,-86.37 4.63,-104.87 3.74,-32.78 41.03,-67.68 70.21,-75.93l0.51 -0.85 4.13 -0.69c27.51,-8.7 115.71,-4.76 150.68,-4.77 42.66,-0.01 108.24,-5.86 142.62,11.61 33.72,17.13 58.44,53.8 60.31,93.4 2.35,49.61 0.26,104.77 0.2,154.97 -0.01,45.26 5.14,91.74 -19.24,124.88 -20.09,27.3 -46.71,47.06 -96.47,48.45l-66.99 0.05c-40.83,0.61 -82.11,-0.04 -123,-0.02 -80.73,0.05 -127.57,-40.11 -127.57,-123.12 0,-40.96 -0.48,-82.17 -0.02,-123.11zm75.09 -246.26c-30.76,12.03 -49.65,14.65 -72.33,34.95 -22.17,19.84 -29.77,27.64 -46.67,57.98l-2 2.73c-2.05,8.97 -7.3,19.15 -10.23,29.86 -3.07,11.28 -4.62,22.74 -5.23,35.08 -1.22,24.69 -0.71,51.99 -0.41,76.86l0.72 160.96c10.9,84.92 69.9,144.86 155.16,155.13l197.5 0.63c48.65,0.41 87.87,-2.46 123.28,-26.59 38.78,-23.14 44.99,-44.16 60.71,-62.82 2.59,-12.54 12.35,-29.21 16.25,-47.56 4.43,-20.83 3.7,-39.85 3.69,-61.22 -0.02,-43.35 -0.45,-86.96 0.07,-130.28 1.54,-84.83 -4.96,-136.1 -52.5,-180.74 -50.48,-47.4 -96.02,-49.6 -182.87,-48.05 -62.93,0.81 -122.64,-0.36 -185.14,3.08z"/>
    <path class="fil1" d="M551.85 479.47c50.51,-7.81 91.03,28.77 97.72,71.12 8.16,51.7 -28.65,92.68 -71.31,99.5 -51.05,8.14 -92.32,-28.8 -99.22,-71.45 -4.25,-26.29 4.39,-49.07 16.89,-66.68 10.68,-15.03 29.21,-28.36 55.92,-32.49zm-49.31 -43.24l-1.82 1.52c-18.17,8.52 -29.9,18.88 -40.97,31.38 -6.42,7.24 -10.85,10.78 -16.01,19.57 -3.86,6.54 -7.17,14.1 -11.45,21.45 -23.29,64.9 -2.43,141.29 58.78,176.76 9.14,5.3 25.71,11.12 32.68,14.79 29.7,5.82 46.53,7.64 74.95,1.46 17.9,-5.14 36.01,-13.24 48.08,-22.56 9.76,-7.54 28.3,-24.82 35.5,-35.78 17.25,-26.25 32.23,-71.73 20.52,-112.76 -9.11,-42.72 -40.61,-76.61 -71.19,-92.73 -44.36,-23.4 -82.35,-21.75 -129.07,-3.1z"/>
    <path class="fil1" d="M690.08 417.51c3.03,28.56 50.76,25.68 47.43,-6.13 -3.21,-30.64 -50.96,-27.07 -47.43,6.13z"/>
   </g>
  </g>
 </g>
</svg>
