<?xml version="1.0" encoding="UTF-8"?>
<!DOCTYPE svg PUBLIC "-//W3C//DTD SVG 1.1//EN" "http://www.w3.org/Graphics/SVG/1.1/DTD/svg11.dtd">
<!-- Creator: CorelDRAW 2017 -->
<svg xmlns="http://www.w3.org/2000/svg" xml:space="preserve" width="11.287mm" height="11.287mm" version="1.1" style="shape-rendering:geometricPrecision; text-rendering:geometricPrecision; image-rendering:optimizeQuality; fill-rule:evenodd; clip-rule:evenodd"
viewBox="0 0 1128.7 1128.7"
 xmlns:xlink="http://www.w3.org/1999/xlink">
 <defs>
  <style type="text/css">
   <![CDATA[
    .fil0 {fill:#55ACEE}
    .fil1 {fill:#FEFEFF}
   ]]>
  </style>
 </defs>
 <g id="Layer_x0020_1">
  <metadata id="CorelCorpID_0Corel-Layer"/>
  <circle class="fil0" cx="564.35" cy="564.35" r="500"/>
  <path class="fil1" d="M352.2 391.55c-18.4,26.12 -13.78,72.82 8.82,103.45 6.93,9.4 16.44,15.51 21.64,24.62 -19.38,1.31 -31.06,-2 -45.52,-9.38 -11.84,46.7 43.84,79.02 75.83,97.5 -12.91,5.46 -30.18,5.33 -42.63,1.26 2.02,32.01 40.91,59.87 72.73,68.53 2.38,0.65 5.54,1.18 7.92,1.88 3.8,1.11 1.48,0.11 4.57,1.63 3.37,1.67 1.87,0.72 4.13,2.78 -8.47,3.6 -16.38,11.02 -27.28,16.27 -45.96,22.12 -71.24,16.69 -113.24,23.46 91.02,46.88 226.19,55.03 312.49,0.13 39.01,-24.82 70.52,-57.11 94.42,-101.22 25.52,-47.08 38.69,-99.23 36.03,-161.17 18.26,-4.27 40.91,-25.3 47.41,-40.91 -17.29,2.65 -33.08,9.6 -51.98,7.69 4.7,-4.8 6.8,-4.87 11.7,-9.28 4.8,-4.33 7.61,-7.2 11.92,-11.82 7.01,-7.51 14.16,-16.19 15.63,-29.57 -12.78,5.78 -48.91,27.76 -67.6,18.03 -6.3,-3.29 -24.35,-25.6 -60.73,-28.23 -56.28,-4.06 -94.19,27.03 -105.48,72.53 -3.93,15.85 -1.89,25.37 -3.36,40.41 -0.37,3.75 3.82,7.21 -13.49,7.84 -32.85,1.2 -63.16,-9.21 -90.58,-22.39 -21.39,-10.28 -37.51,-21.58 -54.68,-34.13l-48.67 -39.91z"/>
 </g>
</svg>
