<?xml version="1.0" encoding="utf-8"?>
<!-- Generator: Adobe Illustrator 26.0.1, SVG Export Plug-In . SVG Version: 6.00 Build 0)  -->
<svg version="1.1" id="Layer_1" xmlns="http://www.w3.org/2000/svg" xmlns:xlink="http://www.w3.org/1999/xlink" x="0px" y="0px"
	 viewBox="0 0 100 100" style="enable-background:new 0 0 100 100;" xml:space="preserve">
<style type="text/css">
	.st0{fill-rule:evenodd;clip-rule:evenodd;fill:#000096;}
</style>
<g>
	<path id="Path_133" class="st0" d="M50.67,15.08l0.29-0.5c1.06-2.21,1-5.05,1-7.46c0-1.38-0.36-2.05-0.36-3.24h-8.65
		c0,0.91,0.18,0.98,0.18,1.98c0,3.28,0.22,5.36-0.83,8.54c-0.26,0.79-0.48,1.78-1.13,2.12c-2.14,1.11-1.65-0.17-6.59,3.68
		c-2.39,1.88-4.41,5.56-5.53,8.34c-1.8,4.45-2.59,12.9-0.77,17.75c1.21,3.22,10.17,3.59,10.17-0.8c0-1.75-0.54-3.46-0.54-6.66
		c0-4.73,2.29-9.52,4.97-11.61c2.71-2.11,6.21-3.01,8.77-0.51c0.79,0.62,1.4,1.45,1.75,2.39c1.68-0.47,3.32-1.06,4.92-1.75
		c1.59-0.63,3.38-1.16,4.81-1.85c-0.84-1.41-1.79-2.75-2.84-4c-0.41-0.38-0.78-0.78-1.13-1.22c0.3-0.52,0.66-1.01,1.08-1.44
		c2-2.57,6.6-8.92,6.66-11.71c-1.38-0.12-3.21-0.66-4.64-0.95l-4.73-1.03C57.31,5.61,57.2,6,56.94,6.52
		c-2.43,4.85-4.27,6.01-6.07,8.7L50.67,15.08L50.67,15.08z"/>
	<path id="Path_134" class="st0" d="M15.21,48.92c0.09,1.9,0.55,3.77,1.33,5.51c0.3,0.67,1.13,1.65,1.15,2.22
		c0.07,1.87-1.19,4.87,1.04,10.36c0.47,1.16,0.81,1.98,1.34,2.99c1.28,2.19,2.8,4.23,4.55,6.08c1.96,1.64,3.82,3.38,5.57,5.24
		c1.3,1.51,2.69,2.95,4.16,4.3l2.16,2.16l2.25,2.07c2.18,2.23,7.79,6.26,11.03,6.26c5.42,0,7.95-2.74,11.07-5.15
		c1.63-1.51,3.09-3.19,4.35-5.02c4.67-6.42,8.55-16.95,4.88-25.81c-0.48-1.16-0.13-1.11,0.53-1.93c5.93-7.4,2.31-16.14,1.16-16.14
		l-3.63,0.17c-2.43,0.21,1.28,1.64,1.28,5.78c0,6.58-2.35,6.72-4.03,9.66c-1.45,2.53,1.69,2.95,1.69,10.69
		c0,5.57-2.94,11.38-5.95,15.67c-2.15,3.1-5.08,5.58-8.49,7.19c-3.59,1.38-5.82-0.7-8.68-2.81c-3.12-2.3-11.4-10.85-14.22-13.7
		c-1.79-1.81-2.39-1.73-4.53-4.83c-3.25-4.71-4.88-11.3-1.51-16.43c0.74-1.13,0.87-1.04,0.87-2.38c0-1.8-2.74-2.47-3.82-1.12
		l-0.87,1.12l-0.18-3.06c0-3.55,2.1-6.13,3.66-8.23c0.39-0.6,0.56-1.32,0.49-2.03c0.04-0.77-0.05-1.53,0.05-2.3
		c0.07-0.51,0.27-1.64,0.31-2.21c-1.85,1.16-3.48,2.64-4.81,4.38C16.78,40.81,15.3,44.79,15.21,48.92L15.21,48.92z"/>
	<path id="Path_135" class="st0" d="M53.94,69.82c0.34,0.28,0.21-0.04-0.18,0.9l-4.02,8.95c-0.67,1.35-1.56,2.33-1.56,3.66
		c0,0.53,0.9,1.26,1.44,1.26c1.65,0,3.58-5.31,4.26-6.73l1.32-2.46c0.03,1.13,0.36,1.63,0.36,3.6c0,2.17-0.83,3.6,1.63,3.6
		c2.34,0,1.18-6.36,0.87-7.71c-0.51-1.58-0.74-3.24-0.69-4.9c0.13-1.16,0.38-2.3,0.74-3.41c0.49-2.01,0.67-4.08,0.52-6.14
		c0-1-0.18-1.07-0.18-1.98c0.55,0.39,1.16,0.69,1.8,0.9c0.83,0,2.71-1.48,0.22-3.1c-0.66-0.43-1.22-0.81-1.84-1.22
		c-1.21-0.81-2.61-1.38-3.78-2.16c0-1.22,0.54-4.66,0.54-7.75c0-0.91-0.16-0.81-0.18-1.63l3.13-1.74c1.13-0.57,2.2-1.04,3.36-1.5
		c5.87-2.34,12.58-1.95,18.63-0.43c0.74,0.26,1.5,0.47,2.27,0.62c0.84,0,3.14-2.17-0.56-3.22c-9.99-2.85-18.35-2.18-27.38,3.21
		c-0.73,0.39-1.41,0.85-2.03,1.4c-0.8,0.85-0.3,1.63-0.3,2.94l-0.19,5.22c-0.23,2.76-1.06,3.6,1.4,5.64
		c1.74,1.45,2.21,4.37,2.21,6.8c0,4.12-8.54,8.58-12.27,9.88c-2.94,1.03-1.11,3.09-0.16,3.09C45.02,75.4,52.97,71.25,53.94,69.82
		L53.94,69.82z"/>
	<path id="Path_136" class="st0" d="M52.14,32.89c-0.38-0.89-0.87-1.74-1.44-2.52c-1.16-1.77-2.57-2.1-4.5-1.08
		c0.38,0.57,0.88,1.07,1.33,1.73l2.39,3.92c1.51,3.34,2.42,0.57,9.54-1.93c5.83-1.94,12.07-2.29,18.07-1l5.78,1.43
		c0.67,0,3.54-2.13-1.12-3.39c-7.81-2.12-14.01-2.59-21.94-0.4C57.49,30.58,54.78,31.66,52.14,32.89z"/>
	<path id="Path_137" class="st0" d="M41.69,49.82l-2.51,0.01c-0.85,0.1-1.69,0.28-2.51,0.55c-1.54,0.69-0.91,3.25,1.27,2.73
		c2.89-0.68,4.11-0.18,5.31-0.65c2.82-1.13,2.41-3.83,2.41-6.42c-0.03-2.25-0.33-4.49-0.9-6.67c-0.8-3.05-1.92-4.36-2.16-5.4
		l-1.15,3.92c0.08,1.31,0.34,2.6,0.78,3.84c0.36,2.14,0.49,4.31,0.38,6.48C42.57,49.17,42.64,49.82,41.69,49.82L41.69,49.82z"/>
	<path id="Path_138" class="st0" d="M22.41,16.85c0,2.43,4.78,1.46,7.75,2.88l2.38-2.48c-1.53-0.22-5.81-1.84-8.87-1.84
		C22.99,15.56,22.47,16.15,22.41,16.85z"/>
	<path id="Path_139" class="st0" d="M18.45,23.52c0,1.63,3.33,1.82,5.55,2.38c0.72,0.22,1.45,0.39,2.2,0.5
		c0.24-1.02,0.99-1.64,1.08-2.7C24.75,23.11,18.45,20.58,18.45,23.52z"/>
</g>
</svg>
