<?xml version="1.0" encoding="UTF-8"?>
<!DOCTYPE svg PUBLIC "-//W3C//DTD SVG 1.1//EN" "http://www.w3.org/Graphics/SVG/1.1/DTD/svg11.dtd">
<!-- Creator: CorelDRAW 2017 -->
<svg xmlns="http://www.w3.org/2000/svg" xml:space="preserve" width="20mm" height="20mm" version="1.1" style="shape-rendering:geometricPrecision; text-rendering:geometricPrecision; image-rendering:optimizeQuality; fill-rule:evenodd; clip-rule:evenodd"
viewBox="0 0 2000 2000"
 xmlns:xlink="http://www.w3.org/1999/xlink">
 <defs>
  <style type="text/css">
   <![CDATA[
    .fil0 {fill:none}
    .fil1 {fill:#000096}
    .fil2 {fill:#999999}
   ]]>
  </style>
 </defs>
 <g id="Layer_x0020_1">
  <metadata id="CorelCorpID_0Corel-Layer"/>
  <rect class="fil0" width="2000" height="2000"/>
  <g id="_1772974767456">
   <path class="fil1" d="M1290.05 1776.92c-8.63,32.6 -34.56,40.77 -72.32,40.78 -33.69,0.03 -201.95,2.6 -221.5,-2.73 -52.82,-14.39 -70.81,-109.55 34.82,-109.58 34.66,-0.02 200.92,-2.65 221.51,2.83 26.88,7.13 46.37,35.17 37.49,68.7zm-290.79 -232.7c36.46,-8.23 192.75,-1.78 242.17,-1.87 40.47,-0.06 74.92,1.05 87.24,35.42 12.74,35.57 -9.02,67.58 -38.56,74.62 -35.25,8.41 -194.26,2.13 -242.06,2.18 -42.71,0.05 -75.23,0.36 -88.34,-33.5 -15.16,-39.12 6.94,-69.48 39.55,-76.85zm-3.8 -161.15c28.82,-9 214.06,-3.78 259.54,-3.78 46.26,0 85.2,-7.46 108.03,25 10.4,14.78 12.09,36.09 4.65,54.44 -6.73,16.62 -15.75,23.99 -34.72,29.66 -27.84,8.35 -216.59,3.11 -261.16,3.11 -44.64,0 -87.34,6.83 -107.4,-24.51 -13.99,-21.86 -18.64,-68.43 31.06,-83.92zm476.26 -477.63c3.03,57.29 0.48,121.34 0.48,179.38 0,53.6 14.48,134.2 -47.25,131.17 -57.78,-2.83 -42.79,-83.6 -42.79,-134.56 0,-57.58 -1.54,-117.27 0.22,-175.72l89.34 -0.27zm-906.37 814.2l-78.3 -2.59c-6.3,-18.79 -2.4,-215.45 -2.4,-252.26l3.24 -248.71c67.47,0.95 102.7,0.6 163.29,-19.25 209.49,-68.65 128.79,-269.49 193.44,-271.25 41.39,-1.12 102.74,91.37 93.71,181.93 -3.31,33.31 -11.84,44.46 -20.92,70.91 -13.15,38.34 22.27,37.91 52.6,37.81 124.06,-0.43 250.14,-1.9 374.03,0.16 11.63,26.8 41.67,51.07 83.97,50.63 60.2,-0.63 81.63,-48.62 84.84,-50 39.3,-0.68 68.05,27.75 58.87,69.35 -8.76,39.59 -46.22,42.1 -89.41,42.05 -89.33,-0.1 -178.67,0 -268.01,0 -61.34,0 -206.32,-9.19 -252.77,12.47 -57.92,26.98 -82.3,110.62 -21.13,177.25 -19.66,2.8 -69.18,105.35 0.08,158.54 -11.52,32.37 -59.01,40.43 -21.65,140.57 -63.31,2.77 -153.05,7.15 -204.98,-18.28 -44.91,-21.98 -86.94,-75.78 -148.5,-79.33zm765.94 -739.65c-100.83,-2.86 -166.57,-63.77 -195.06,-136.02 -22.24,-56.44 -13.23,-377.09 -13.23,-478.39 0,-123.54 -3,-183.27 142.17,-183.22l329.1 0c151.15,-0.12 136.99,82.1 136.99,190 0,105.2 9.69,413.76 -14.74,475.13 -27.85,69.98 -95.72,129.74 -193.46,132.53 0,-26.33 5.41,-87.33 -6.24,-106.08 -16.33,-26.33 -54.94,-19.35 -92.18,-19.36 -104.09,0 -93.4,4.64 -93.35,125.41zm-4.09 51.23c8.61,6.75 5.35,1.48 5.17,33.23l-0.7 100.42c-24.16,6.38 -144.4,2.12 -178.44,2.12 -16.13,0 -159.94,3.62 -175,-2.97 24.83,-86.13 7.89,-158.62 -32.17,-221.49 -49.26,-77.34 -131.26,-91.15 -167.76,-29.11 -21.04,35.75 -11.38,145.62 -75.18,199.68 -46.69,39.57 -137.59,60.62 -216.47,51.36 -5.15,-60.19 -42.86,-46.38 -127.31,-46.38 -68.49,0 -134.24,-12.89 -139.96,34.45 -5.29,43.87 -0.38,125.28 -0.38,173.16 0,16.59 -1.98,71.73 1.9,83.86 7,21.81 42.37,23.92 46.34,-2.15 -0.62,-68.79 0.49,-138.21 0.1,-207.23 -0.22,-38.67 -14.48,-32.58 68.26,-32.58 76.92,0 100.66,-11.29 102.36,15.32 0.27,4.26 -0.27,12.51 -0.3,17.26l0.1 542.91c0.21,17.92 4.1,21.55 -10.35,23.28 -6.23,0.74 -23.27,-0.29 -30.74,-0.3 -15.99,-0.01 -121.7,2.62 -126.62,-1.81 -7.77,-6.95 -2.71,-47.82 -2.71,-61.97l-0.16 -190.21c-4.05,-26.85 -41.07,-24.28 -47,0.63 -3.43,14.43 -1.18,66.15 -1.18,84.41 0,246.83 -20.16,218.02 126.78,218.02 65.04,0 131.7,12.16 138.96,-31.32l1.11 -16.1c82.1,-13.08 108.72,12.61 172.35,56.49 17.48,12.06 29.72,19.27 50.25,27.73 16.84,6.92 42.63,9.7 57.34,16.59l483.62 0c20.42,-9.54 31.11,-6.47 51.85,-21.59 30.02,-21.88 45.8,-60.46 40.86,-99.75 -2.72,-21.7 -13.92,-36.31 -19.92,-53.01 82.33,-32.41 63.61,-141.54 40.22,-159.7 27.61,-26.98 90.41,-59.52 46.82,-153.52 59.22,-12.53 162.33,28.18 204.82,-62.69 16.44,-35.13 12.37,-74.24 -6.62,-104.09 -16.34,-25.71 -39.96,-43.84 -84.39,-48.18l0.46 -134.98c106.69,-4.33 169.73,-53.37 211.02,-111.35 59.47,-83.5 47.57,-162.51 47.57,-275.88 0,-107.45 -0.05,-214.88 0,-322.31 0.03,-56.21 -3.67,-92.95 -31.18,-129.54 -35.41,-47.07 -72.67,-47.02 -99.48,-60.45l-445.03 0c-19.72,9.03 -35.49,6.94 -58.79,21.53 -65.37,40.88 -75.52,91.32 -75.49,168.46 0.05,107.43 0,214.86 0,322.31 0,108.28 -10.48,195.99 46.72,275.21 44.56,61.69 99.04,101.85 208.35,112.23z"/>
   <path class="fil1" d="M1260.54 470.11c-7.51,-3.93 -3.11,2.16 -4.81,-9.46l0.18 -112.04c-0.18,-41.55 -18.17,-33.55 90.69,-33.55l237.75 -0.34c19.12,1.59 7.81,-0.59 12.82,5.16l0.16 150.35c-28,0.96 -56.7,0.29 -84.59,0.18 -34.03,-0.13 -47.79,9.37 -38.41,42.98 20.5,12.23 55.16,8 86.01,8 105.63,0.03 87.66,-4.34 87.94,-196.62 0.11,-74.94 -40.34,-59.39 -128.65,-59.39 -63.33,0 -126.65,0 -189.99,0 -76.38,0 -124.07,-18.47 -123.65,66.26 0.93,187.29 -22.33,189.76 96.51,189.75 22.3,0 73.75,5.8 87.18,-7.62 5.82,-5.81 25.58,-43.63 -36.21,-43.33 -29.69,0.15 -63.78,1.56 -92.93,-0.33z"/>
   <path class="fil1" d="M1282.22 673.4c50.65,-23.25 82.21,54.8 33.34,75.15 -49.11,20.45 -84.96,-51.45 -33.34,-75.15zm-9.37 -50.74c-119.07,34.58 -63.38,211.77 52.54,176.5 115.51,-35.17 64.58,-210.51 -52.54,-176.5z"/>
   <path class="fil1" d="M1594.51 725.2c-18.18,49.88 -95.16,24.98 -77.67,-29.56 14.69,-45.85 97.29,-24.26 77.67,29.56zm-62.62 -103.7c-118.19,32.95 -69.42,210.48 48.81,178.22 40.9,-11.15 78.62,-55.38 64.56,-111.75 -10.68,-42.9 -57,-82.19 -113.37,-66.47z"/>
   <path class="fil1" d="M1260.54 470.11l-0.95 -151.96 337.58 1.73c-5.01,-5.75 6.3,-3.57 -12.82,-5.16l-237.75 0.34c-108.86,0 -90.87,-8 -90.69,33.55l-0.18 112.04c1.7,11.62 -2.7,5.53 4.81,9.46z"/>
   <path class="fil2" d="M978.23 1164.02c15.06,6.59 158.87,2.97 175,2.97 34.04,0 154.28,4.26 178.44,-2.12l0.7 -100.42c0.18,-31.75 3.44,-26.48 -5.17,-33.23l1.47 132.8 -350.44 0z"/>
  </g>
 </g>
</svg>
