<?xml version="1.0" encoding="utf-8"?>
<!-- Generator: Adobe Illustrator 26.0.1, SVG Export Plug-In . SVG Version: 6.00 Build 0)  -->
<svg version="1.1" id="Layer_1" xmlns="http://www.w3.org/2000/svg" xmlns:xlink="http://www.w3.org/1999/xlink" x="0px" y="0px"
	 viewBox="0 0 100 100" style="enable-background:new 0 0 100 100;" xml:space="preserve">
<style type="text/css">
	.st0{fill-rule:evenodd;clip-rule:evenodd;fill:#000096;}
</style>
<g id="Group_631" transform="translate(244 1867)">
	<g id="Layer_x0020_1" transform="translate(0 0)">
		<g id="_2887381918080">
			<path id="Path_156" class="st0" d="M-188.49-1829.67c0-1.61,0.41-1.97,2.21-1.97l12.52,0.03l6.13,11.72l-12.03,0.06
				c-8.04,0-8.82,0.75-8.82-2.62L-188.49-1829.67z M-211.62-1832.64l5.14-0.01l0.01,4.61l5.13,0.01l0.01,4.59l-5.15-0.01v4.6
				l-5.13-0.01l-0.01-4.58h-5.14l0.01-4.62l5.13,0.02v-2.94L-211.62-1832.64z M-240.99-1822.45v2.62c5.64,0.56,5.14,3.42,0,3.93
				v18.68c0,1.94,1.59,2.3,3.3,2.3c0.12-1.85,0.58-3.66,1.35-5.35c5.83-12.04,26.62-9.77,28.02,5.35h28.64
				c0.43-17.17,28.95-17.17,29.37,0c1.63,0,3.3-0.27,3.3-2.3v-10.82c-3.36,0-4.77-0.49-4.77-3.93h4.77c0-5.08-3.33-4.96-10.69-7.17
				c-4.39-1.32-4.26-0.38-5.48-2.97c-0.86-1.81-1.68-3.59-2.67-5.48c-5.4-10.33-3.77-8.81-12.46-9.55
				c-16.34-1.38-36.72-0.58-53.51-0.72c-8.98,0.32-9.17,8.17-9.18,14.77L-240.99-1822.45z"/>
			<path id="Path_157" class="st0" d="M-204.41-1847.71v6.56h11.14c0-9.72,1.58-8.2-9.51-8.2
				C-203.64-1849.25-204.32-1848.57-204.41-1847.71z"/>
			<path id="Path_158" class="st0" d="M-163.07-1804.11c5.4,0,9.77,4.38,9.77,9.77s-4.38,9.77-9.77,9.77s-9.77-4.38-9.77-9.77v0
				C-172.84-1799.73-168.47-1804.11-163.07-1804.11C-163.07-1804.11-163.07-1804.11-163.07-1804.11z M-163.07-1798.61
				c2.36,0,4.27,1.91,4.27,4.27s-1.91,4.27-4.27,4.27s-4.27-1.91-4.27-4.27C-167.34-1796.7-165.42-1798.61-163.07-1798.61
				L-163.07-1798.61z"/>
			<path id="Path_159" class="st0" d="M-224.86-1804.11c5.4,0,9.77,4.38,9.77,9.77c0,5.4-4.38,9.77-9.77,9.77
				c-5.4,0-9.77-4.38-9.77-9.77l0,0C-234.63-1799.73-230.26-1804.11-224.86-1804.11C-224.86-1804.11-224.86-1804.11-224.86-1804.11z
				 M-224.86-1798.61c2.36,0,4.27,1.91,4.27,4.27s-1.91,4.27-4.27,4.27s-4.27-1.91-4.27-4.27
				C-229.13-1796.7-227.22-1798.61-224.86-1798.61L-224.86-1798.61z"/>
		</g>
	</g>
</g>
</svg>
