<?xml version="1.0" encoding="utf-8"?>
<!-- Generator: Adobe Illustrator 26.0.1, SVG Export Plug-In . SVG Version: 6.00 Build 0)  -->
<svg version="1.1" id="Layer_1" xmlns="http://www.w3.org/2000/svg" xmlns:xlink="http://www.w3.org/1999/xlink" x="0px" y="0px"
	 viewBox="0 0 100 100" style="enable-background:new 0 0 100 100;" xml:space="preserve">
<style type="text/css">
	.st0{fill:#000096;}
</style>
<g id="_2729742497104" transform="translate(16.537 5.351)">
	<path id="Path_402" class="st0" d="M58.07,44.57L58.07,44.57c-0.09-2.53-1.55-4.14-3.14-5.64c-3.6-3.26-7.7-5.93-12.14-7.91
		c-1.75-0.83-2.81-0.35-3.93,1.14c-1.58,2.1-3.42,4-5.44,6.31c-2.07-2.44-3.85-4.42-5.51-6.5c-0.8-1-1.55-1.84-2.94-1.25
		c-5.48,2.12-10.4,5.46-14.38,9.77c-0.87,1.28-1.61,2.64-2.19,4.08c1.67,0,2.73,0.04,3.78-0.02c0.41-0.02,0.79-0.2,1.07-0.5
		c2.65-3.64,6.47-5.74,10.22-7.96c1.17-0.69,1.76-0.37,2.62,0.58c1.71,1.88,3.62,3.57,5.49,5.29c0.95,1.05,2.56,1.13,3.61,0.18
		c0.08-0.07,0.15-0.15,0.22-0.23c1.9-1.78,3.79-3.58,5.62-5.43c0.61-0.61,0.99-1.15,2-0.59c3.92,2.19,7.83,4.38,10.61,8.07
		c0.25,0.32,0.61,0.52,1.01,0.58C55.76,44.62,56.87,44.57,58.07,44.57z"/>
	<path id="Path_403" class="st0" d="M-0.55,92.49c-0.45-1.18-0.75-2.41-0.9-3.67c-0.07-12.63-0.04-25.26-0.04-37.9
		c0-2.71,0.41-3.11,3.15-3.11c21.22,0,42.44,0,63.66,0.01c2.78,0,3.1,0.33,3.1,3.1c0,12.63,0.03,25.26-0.04,37.9
		c-0.15,1.25-0.45,2.49-0.9,3.67L-0.55,92.49z M1.14,89.57h64.79V74.98c0-3.41,0-6.83,0-10.24c-0.01-4.16-0.05-8.32-0.03-12.48
		c0.01-1.5-0.61-2.09-2.11-2.05c-3.85,0.11-7.7,0.15-11.55,0.18c-2.98,0.02-5.96,0-8.94-0.02c-4.1-0.03-8.2-0.11-12.3-0.1
		c-3.23,0-6.45,0.15-9.68,0.14c-5.96-0.02-11.92-0.09-17.88-0.2c-1.67-0.03-2.37,0.45-2.36,2.33C1.19,63.5,1.15,74.46,1.15,85.42
		L1.14,89.57z"/>
	<path id="Path_404" class="st0" d="M35.34-3.2c0.04,0.04,0.08,0.11,0.13,0.13c8.61,2.98,11.83,8.41,10.26,17.51
		c-0.56,3.9-2.17,7.58-4.66,10.64c-4.42,5.24-10.73,5.4-15.07,0.11c-4.34-4.97-6.09-11.68-4.74-18.14c0.76-4.97,4.57-8.93,9.51-9.86
		c0.29-0.1,0.56-0.22,0.82-0.38L35.34-3.2z M25.14,11.67L25.14,11.67c0.19,3.86,1.58,7.57,3.98,10.61c2.69,3.28,5.97,3.34,8.63,0.04
		c3.15-3.78,4.56-8.72,3.9-13.6C40.9,2.86,35.5-0.34,30.31,1.75C27.04,3.08,25.13,6.44,25.14,11.67L25.14,11.67z"/>
	<path id="Path_405" class="st0" d="M58.07,44.57c-1.2,0-2.31,0.05-3.42-0.03c-0.4-0.06-0.76-0.27-1.01-0.58
		c-2.78-3.69-6.69-5.88-10.61-8.07c-1-0.56-1.39-0.03-2,0.59c-1.83,1.85-3.72,3.65-5.62,5.43c-0.92,1.07-2.53,1.19-3.6,0.27
		c-0.08-0.07-0.16-0.15-0.23-0.22c-1.87-1.73-3.79-3.42-5.49-5.29c-0.86-0.95-1.45-1.27-2.62-0.58c-3.75,2.22-7.57,4.32-10.22,7.96
		c-0.28,0.3-0.66,0.47-1.07,0.5c-1.05,0.07-2.11,0.02-3.78,0.02c0.58-1.43,1.32-2.8,2.19-4.08c3.99-4.31,8.9-7.65,14.38-9.77
		c1.4-0.59,2.14,0.25,2.94,1.25c1.66,2.07,3.43,4.06,5.51,6.5c2.02-2.31,3.86-4.21,5.44-6.31c1.12-1.5,2.18-1.97,3.93-1.14
		c4.44,1.98,8.54,4.65,12.14,7.91C56.52,40.43,57.98,42.04,58.07,44.57z"/>
	<path id="Path_406" class="st0" d="M35.01,65.76h2.49c3.11,0,6.23-0.09,9.34,0.06c0.81,0.04,2.24,0.78,2.25,1.23
		c0.05,1.39-1.24,1.15-2.24,1.15c-3.43-0.03-6.85-0.02-10.28-0.06c-1.31-0.01-1.86,0.46-1.84,1.88c0.02,1.37,0.64,1.65,1.83,1.71
		c4.28,0.21,8.56,0.44,12.83,0.81c0.65,0.06,1.24,0.86,1.85,1.31c-0.68,0.33-1.37,0.97-2.04,0.95c-4.16-0.18-8.31-0.53-12.47-0.76
		c-0.77-0.04-1.88-0.4-1.94,1.04c-0.05,1.19-0.25,2.36,1.49,2.65c2.2,0.39,4.38,0.9,6.53,1.52c0.59,0.17,1.03,0.86,1.54,1.31
		c-0.65,0.31-1.36,0.97-1.94,0.87c-2.44-0.38-4.84-1-6.93-1.45l-1.89,2.43l-2.1-2.4c-1.12,0.23-2.68,0.55-4.24,0.88
		c-0.82,0.27-1.68,0.45-2.54,0.52c-0.69-0.17-1.34-0.46-1.93-0.86c0.48-0.45,0.89-1.15,1.46-1.32c2.09-0.6,4.21-1.1,6.35-1.5
		c1.57-0.29,1.78-1.29,1.69-2.58c-0.11-1.46-1.21-1.18-2.09-1.13c-4.03,0.23-8.07,0.5-12.1,0.76c-0.31,0.02-0.68,0.13-0.92,0.01
		c-0.52-0.31-1.01-0.66-1.48-1.04c0.46-0.41,0.89-1.13,1.4-1.19c2.03-0.26,4.08-0.33,6.13-0.46c2.48-0.15,4.96-0.32,7.45-0.4
		c1.28-0.04,1.48-0.73,1.51-1.82c0.03-1.19-0.38-1.74-1.58-1.73c-3.43,0.03-6.85,0.04-10.28,0.06c-0.49,0.08-0.98,0.07-1.46-0.03
		c-0.45-0.21-1.02-0.71-1.04-1.11s0.54-0.96,0.97-1.14c0.6-0.17,1.22-0.23,1.84-0.17c3.73-0.01,7.46,0,11.15,0
		c0.89-2.84,0.56-3.27-2.21-3.36c-2.42-0.08-4.86-0.15-7.26-0.44c-0.63-0.08-1.16-0.95-1.74-1.45c0.65-0.29,1.3-0.83,1.93-0.82
		c2.61,0.06,5.21,0.28,7.81,0.46c1,0.07,1.82,0,2.06-1.28c0.08-0.43,0.81-1.12,1.05-1.05c0.56,0.17,1.02,0.6,1.23,1.15
		c0.2,1.28,1.03,1.23,1.91,1.18c2.54-0.15,5.09-0.27,7.63-0.51c1-0.09,2.08-0.28,2.07,1.02c0,0.46-1.12,1.24-1.8,1.32
		c-2.34,0.28-4.71,0.37-7.07,0.43C34.64,62.48,34.52,62.58,35.01,65.76z"/>
	<path id="Path_407" class="st0" d="M6.83,53.78h4.29c-1.88,10.79-2.12,21.8-0.71,32.67H6.14C4.7,75.59,4.93,64.57,6.83,53.78z"/>
	<path id="Path_408" class="st0" d="M60.82,86.35h-4.26c1.39-10.82,1.14-21.79-0.75-32.54h4.31C61.99,64.56,62.23,75.53,60.82,86.35
		z"/>
</g>
</svg>
