<?xml version="1.0" encoding="utf-8"?>
<!-- Generator: Adobe Illustrator 26.0.1, SVG Export Plug-In . SVG Version: 6.00 Build 0)  -->
<svg version="1.1" id="Layer_1" xmlns="http://www.w3.org/2000/svg" xmlns:xlink="http://www.w3.org/1999/xlink" x="0px" y="0px"
	 viewBox="0 0 100 100" style="enable-background:new 0 0 100 100;" xml:space="preserve">
<style type="text/css">
	.st0{fill-rule:evenodd;clip-rule:evenodd;fill:#000096;}
</style>
<g id="Layer_x0020_1" transform="translate(544 1593)">
	<path id="Path_140" class="st0" d="M-482.48-1575.4c0,3.14,0.88,4.44,1.44,6.84c1.38-0.45,2.71-1.05,3.96-1.8
		c-0.29-3.45-2.56-8.06,2.4-12c8.52-6.77,18.75,1.88,21.3,11.34c0.72,2.74,1.06,5.58,1,8.41c-0.84,5.78-1.03,9.41-4.2,14.91
		c-2.85,4.95-6.06,8.66-12.23,8.66c-2.94-0.24-5.62-1.79-7.29-4.23c-2.92-4.63,0.1-7.41,0.45-8.73c-1.95-0.46-6.12-4.1-6.12,5.76
		c0,3.45,2.29,6.31,4.59,8.37c7.68,6.89,17.98,3.02,23.61-6.09c3.35-5.28,5.29-11.33,5.64-17.57v-3.25
		c-0.67-13.68-9.7-24.31-18.72-24.31c-6.69,0-11.83,2.05-14.65,8.03C-482.1-1579.28-482.51-1577.35-482.48-1575.4z"/>
	<path id="Path_141" class="st0" d="M-540.09-1565.32c0,10.92,3.2,21.08,11.04,27.48c11.78,9.61,26.19-2.79,22.2-13.2
		c-1.07-2.78-2.84-2.24-5.52-0.96c0.41,1.55,3.26,4.08,0.59,8.51c-1.92,3.18-4.98,4.45-8.87,4.45c-4.77,0-8.73-5.18-10.65-8.43
		c-10.15-17.19-0.76-37.29,11.01-37.29c4.95,0,10.08,3.38,10.08,8.28c0,4.72-0.52,3.74-0.72,6.12c1.34,0.71,2.59,1.15,3.96,1.8
		c0.8-3.45,2.66-7.15,0.36-12.24c-0.58-1.56-1.54-2.95-2.79-4.05c-3.72-3.69-6.99-4.22-11.98-4.22
		C-531.29-1589.08-540.09-1575.96-540.09-1565.32z"/>
	<path id="Path_142" class="st0" d="M-522.44-1573.96c0,4.13,6.43,7.61,9.6,9.13c3.82,1.83,8.83,3.53,11.18,7.91
		c1.28,2.17,2.05,4.59,2.26,7.1c0.64,7.99,0.37,19.76,0.37,28.08c2.77,0.64,5.33,0.36,8.64,0.36c2.16,0,1.44-4.38,1.44-7.92
		c0-8.45-1.01-20.29,2.27-26.89c3.56-7.15,12.62-7.96,17.07-11.73c7.25-6.14,2.59-8.93,0.85-5.99c-1.96,3.33-3.13,4.13-7.47,6.21
		c-0.46,0.22-3.69,1.68-3.73,1.68c-3.54,0-3.28-3.24-5.04-3.24c-1.59,0-2.01,1.83-0.53,3.77c0.97,1.28,0.81,0.54,1.61,1.63
		c-5.16,3.42-8.17,9.29-7.92,15.48v24.12h-4.32v-23.41c0-7.9-3.18-13.03-7.92-16.2c1.91-2.86,3.05-1.58,2.16-5.4
		c-3.77,0-2.39,3.24-5.76,3.24c-2.54-0.97-5.01-2.1-7.41-3.39c-1.41-0.83-2.62-1.95-3.55-3.3c-1.04-1.7-0.55-2.31-2.37-2.31
		C-521.7-1575.05-522.45-1574.41-522.44-1573.96L-522.44-1573.96z"/>
	<path id="Path_143" class="st0" d="M-487.52-1547.68v25.56c0,2.41,7.06,0.84,8.92,5.48c1.57,3.9-1.62,8.13-5.56,10.13
		c-1.7,0.86-3.52,1.47-5.39,1.81c-4.26,1.01-3.74,2.38-3.74,6.35c0.07,0.64,0.48,1.19,1.07,1.44h0.89c0.49-0.25,0.88-0.98,0.91-2.53
		c0.09-3.79,0-0.47,8.06-4.55c4.58-2.01,7.4-6.66,7.07-11.65c0-4.72-5.9-7.84-9.36-7.92c0-6.21-0.81-24.2,1.19-28.69
		c3-6.76,10.28-1.69,11.77,0.26c0.87,1.13,0.55,1.8,2.16,1.8c3.22,0,1.06-5.22-6.08-7.96l-1.48-0.68c4.71-0.39,8.18-0.92,13.8,2.4
		c0.96,0.56,1.7,1.56,2.76,1.56c0.78,0,4.13-1.54-2.63-4.93c-1.87-0.99-3.91-1.64-6.01-1.91c0.07-0.05,0.19-0.2,0.23-0.14l1.69-0.83
		c0.65-0.29,1.28-0.62,1.89-0.99c2.38-1.52,4.52-3.39,6.35-5.56c0.44-0.51,0.72-1.14,0.79-1.81c-0.1-0.82-0.77-1.45-1.6-1.49
		c-1.25,0-2.4,3.15-6.91,6.05c-2.67,1.72-6.26,2.56-9.4,3.92C-481.85-1560.06-487.52-1555.71-487.52-1547.68z"/>
	<path id="Path_144" class="st0" d="M-530-1571.44c0.5,2.16,3.04,4.47,4.59,5.85c2.57,2.29,5.4,3.06,6.57,3.87
		c-1.92,0.04-10.08,2.82-10.08,5.4c0,2.8,2.98,0.69,3.76,0.16c5.2-3.55,9.65-3.06,14.24-2.68l-0.46,0.26
		c-2.07,0.97-2.37,0.65-4.79,2.41c-0.79,0.52-1.53,1.1-2.21,1.75c-3,3.25-0.87,6.07,1.91,2.63c3.13-3.87,13.11-8.81,13.11,6.99
		v21.24c-4.11,0.09-9.36,3.63-9.36,7.92c0,5.35,2.11,9.09,6.83,11.53c8.04,4.15,8.16,0.94,8.3,4.3c0.08,1.75,0.44,2.59,0.88,2.9
		h0.97c0.54-0.3,0.91-0.83,1.02-1.44c0-8.37-1.64-4.4-8.89-8.03c-1.6-0.69-3.01-1.74-4.14-3.07c-3.48-4.36-2.96-9.59,4.54-11.06
		c1.32-0.26,2.72-0.23,2.72-1.6v-25.56c0.02-3.47-1.23-6.84-3.5-9.46c-6.44-6.62-11.99-5.98-17.1-9.19
		c-1.95-1.24-3.71-2.76-5.21-4.51C-528.16-1573.13-527.66-1573.07-530-1571.44z"/>
	<path id="Path_145" class="st0" d="M-494-1505.55c1.08-0.86,2.37-1.44,3.74-1.66c1.42-0.29,2.81-0.71,4.15-1.25
		c2.18-0.92,4.84-2.82,5.08-5.72h-25.92c0.24,2.95,2.87,4.78,5.08,5.72c2.42,1.03,4.89,1.3,6.14,1.78
		C-494.55-1506.22-494.96-1506.19-494-1505.55z"/>
</g>
</svg>
