<?xml version="1.0" encoding="utf-8"?>
<!-- Generator: Adobe Illustrator 26.0.1, SVG Export Plug-In . SVG Version: 6.00 Build 0)  -->
<svg version="1.1" id="Layer_1" xmlns="http://www.w3.org/2000/svg" xmlns:xlink="http://www.w3.org/1999/xlink" x="0px" y="0px"
	 viewBox="0 0 100 100" style="enable-background:new 0 0 100 100;" xml:space="preserve">
<style type="text/css">
	.st0{fill-rule:evenodd;clip-rule:evenodd;fill:#000096;}
</style>
<g id="Group_630" transform="translate(1109 1585)">
	<g id="Layer_x0020_1" transform="translate(0 0)">
		<g id="_2887034520736" transform="translate(0 0)">
			<path id="Path_146" class="st0" d="M-1034.04-1548.96c0,8.57,5.69,17.13,8.56,23.77c2.56,5.93,3.74,13.14,4.56,19.68
				c0.32,2.53,0.32,5.03,0.84,7.24c4.85,0,5.16,2.46,3.15-11.23c-1.72-11.67-3.74-16.41-8.54-25.99c-1.56-3.11-4.16-8.76-4.16-13.1
				c0-2.11,2.2-8.41,2.2-12.12h-4.41C-1032.16-1556.91-1034.04-1551.32-1034.04-1548.96z"/>
			<path id="Path_147" class="st0" d="M-1086.52-1535.37c-0.75-1.59-1.76-3.04-2.99-4.3c-0.52,1.47-1.13,2.91-1.83,4.3
				c-0.73,1.47-1.47,2.93-2.21,4.4c-1.6,2.99-2.89,6.14-3.84,9.39c-1.1,3.88-4.27,20.05-3.67,22.66c0.29,1.24,4.03,1.11,4.49-0.16
				c0.13-0.37,0.46-5.09,0.59-6.02C-1092.65-1529.46-1089.18-1526.52-1086.52-1535.37z"/>
			<path id="Path_148" class="st0" d="M-1089.51-1539.67c1.23,1.26,2.24,2.71,2.99,4.3c1.36,1.78,2.69,3.68,3.99,5.51l4.04,5.88
				c-1.35,0.9-2.98,1.71-3.31,2.93c1.36,0.51,2.63,1.22,3.77,2.1c0.76,0.51,0.22,0.1,0.64,0.47c0.74-0.5,1.47-0.97,2.2-1.47
				c1.49,2.81,1.15,2.45,2.57,2.57c-0.14-1.67-0.78-2.01-1.47-3.31c0.59-0.41,1.2-0.78,1.84-1.1c-0.48-1.81-0.85-3.65-1.1-5.51
				c-1.41,0.38-2.28,1.47-3.67,2.2c-1.26-2.13-2.64-4.19-4.12-6.17c-1.49-2.24-2.99-4.12-4.33-6.4c-1.2-1.3-2.22-2.75-3.03-4.32
				l-11-15.73c-0.7-1.07-0.81-1.54-2.14-1.9c-1.01,1.5-0.92,1.35,1.73,4.88c0.66,0.88,1.03,1.5,1.64,2.4
				c0.68,1.02,1.15,1.53,1.85,2.56c1.21,1.81,2.26,3.19,3.45,5C-1091.74-1542.92-1090.56-1541.53-1089.51-1539.67z"/>
			<path id="Path_149" class="st0" d="M-1061.23-1550.43c-1.43-0.52-2.9-0.89-4.41-1.1c0.47,1.8,0.72,3.65,0.73,5.51
				c0.88,0.16,1.74,0.4,2.57,0.73c-0.33,1.08-0.58,2.19-0.73,3.31c1.78-0.15,1.8-1.15,1.84-2.93c0.86,0.07,1.72,0.19,2.57,0.37
				c1.35-2.01,2.82-3.3,2.93-4.78c-1.25-0.1-2.48-0.34-3.67-0.73c0.64-2.73,7.67-30.15,7.71-31.96c-2.8,0-2.03,0.42-3.75,7.27
				c-0.63,2.51-1.22,5.24-1.91,8.01C-1058.06-1563.86-1061.19-1552.22-1061.23-1550.43z"/>
			<path id="Path_150" class="st0" d="M-1088.5-1541.98c0.81,1.57,1.83,3.03,3.03,4.33l1.99-6.01c1.66-6.43-0.15-8.44-1.04-13.96
				c-0.67-4.14,0.1-3.09-4.99-3.09c0.51,6.1,2.71,9.98,2.12,14.24C-1087.61-1544.89-1088.21-1543.56-1088.5-1541.98z"/>
			<path id="Path_151" class="st0" d="M-1042.86-1513.33c-0.76,0.16-1.5,0.4-2.2,0.73c0,2.13-0.37,3.06-0.37,5.51
				c1.31-0.48,2.67-0.85,4.04-1.1c0.34,1.74,0.85,3.45,1.52,5.1l4.73,15.11h2.2c-0.71-3.03-6.46-19.14-6.61-20.94l3.66-1.16
				c-0.54-2.02-2.23-2.77-3.29-4.35l-2.55,0.79c-0.06-1.97-0.3-2.94-1.85-3.36C-1043.56-1515.74-1043.31-1514.5-1042.86-1513.33z"/>
			<path id="Path_152" class="st0" d="M-1066.74-1542.72c-0.14,2.41,1.7,4.47,4.11,4.61c1.05,0.06,2.08-0.26,2.91-0.9
				c1.06-0.73,1.4-1.26,1.44-2.98c-3.68,0-1.47,1.84-4.04,1.84c-2.45,0-2.2-2.29-2.2-3.31
				C-1066.08-1543.49-1066.74-1544.2-1066.74-1542.72z"/>
			<path id="Path_153" class="st0" d="M-1047.27-1514.8c2.24-0.19,1.53-0.27,1.95-1.73c0.59-2.03,0.86-1.95,2.83-1.95
				c1.2,0,1.42,1.04,1.84,1.84c0.65-0.31,1.19-0.42,1.84-0.73c-1.1-2.08-1.63-3.31-4.41-3.31
				C-1046.81-1520.68-1047.27-1517.44-1047.27-1514.8z"/>
			<path id="Path_154" class="st0" d="M-1070.78-1518.1c0,1.48-0.8,2.57-2.2,2.57c-2.3,0-0.78-1.9-3.67-0.37
				c0.92,3.43,9.25,3.74,7.35-4.41C-1071.92-1520.09-1070.78-1519.22-1070.78-1518.1z"/>
			<path id="Path_155" class="st0" d="M-1060.13-1529.49c-0.37,1.58-0.77,4.04,1.84,4.04
				C-1055.56-1525.45-1054.95-1531.5-1060.13-1529.49z"/>
		</g>
	</g>
</g>
</svg>
