<?xml version="1.0" encoding="utf-8"?>
<!-- Generator: Adobe Illustrator 26.0.1, SVG Export Plug-In . SVG Version: 6.00 Build 0)  -->
<svg version="1.1" id="Layer_1" xmlns="http://www.w3.org/2000/svg" xmlns:xlink="http://www.w3.org/1999/xlink" x="0px" y="0px"
	 viewBox="0 0 100 100" style="enable-background:new 0 0 100 100;" xml:space="preserve">
<style type="text/css">
	.st0{fill-rule:evenodd;clip-rule:evenodd;fill:#3838AE;}
	.st1{fill-rule:evenodd;clip-rule:evenodd;fill:#000096;}
</style>
<g id="Group_632" transform="translate(547 1865)">
	<path id="Shape_0" class="st0" d="M-469.38-1813.66c-0.02,0.02-0.03,0.03-0.05,0.03c-2.92,2.83-6.1,6.44-6.1,10.85
		c0.03,1.45-0.18,2.89-0.63,4.26c-0.28,0.8-1.15,1.22-1.94,0.94c-0.43-0.15-0.78-0.49-0.93-0.92c-0.31-0.71-0.74-1.37-1.25-1.96
		c-1.34-1.43-2.82-2.72-4.42-3.85c-4.32-3.24-3.3-8.8-2.31-11.75c0.09-0.29,0.18-0.56,0.27-0.79L-469.38-1813.66z"/>
	<path id="Shape_1" class="st1" d="M-473.96-1813.66c-0.02,0.02-0.03,0.03-0.05,0.03c-2.92,2.83-6.1,6.44-6.1,10.85
		c0,0.78-0.05,1.55-0.17,2.32c-1.34-1.43-2.82-2.72-4.42-3.85c-4.32-3.24-3.3-8.8-2.31-11.75L-473.96-1813.66z"/>
	<path id="Shape_2" class="st1" d="M-463.31-1827.23c-0.02-1.04-0.08-2.06-0.17-3.06c-0.19-2.1-0.57-4.17-1.13-6.2
		c-0.85-2.98-2.51-5.65-4.8-7.73c-0.53-0.52-1.1-1.01-1.7-1.47c-0.35-0.27-0.69-0.53-1.04-0.79c-1.15-0.86-2.28-1.64-3.39-2.31
		c-0.72-0.46-1.42-0.86-2.14-1.22c-2.66-1.43-5.55-2.41-8.54-2.88c-1.01-0.16-2.02-0.26-3.04-0.29c-0.4-0.02-0.81-0.03-1.22-0.03
		c-0.53,0-1.08,0.02-1.64,0.05c-0.08,0-0.15,0.02-0.23,0.02c-0.17,0-0.32,0.02-0.49,0.03c-0.84,0.05-1.7,0.12-2.55,0.21
		c-1.1,0.12-2.19,0.26-3.29,0.43c-0.93,0.14-1.86,0.29-2.78,0.46c-1.47,0.26-2.92,0.53-4.32,0.82c-1.22,0.24-2.37,0.53-3.44,0.86
		c-1.01,0.3-2.01,0.66-2.98,1.08c-1.82,0.74-3.47,1.84-4.86,3.22c-1.41,1.5-2.59,3.2-3.5,5.04c-0.37,0.75-0.7,1.54-1.01,2.35
		c-0.06,0.17-0.12,0.37-0.2,0.61c-0.44,1.47-1.04,4-1.04,4c-0.15,0.73-0.25,1.47-0.27,2.22c-0.09,1.01-0.05,2.03,0.11,3.03v0.02
		c0.2,2.83,2.02,5.3,4.66,6.33c0.48,0.18,0.97,0.31,1.47,0.41h0.05c0.5,0.09,1.02,0.14,1.53,0.15c1.01,0.04,2.02-0.01,3.02-0.15
		c3.99-0.56,7.32-1.08,10.18-1.3c1.21-0.11,2.42-0.13,3.64-0.08c1.02,0.05,2.03,0.19,3.03,0.43c2.07,0.51,3.97,1.59,5.47,3.1
		c2.03,2.14,4.31,4.03,6.79,5.62c0.93,0.56,1.91,1.01,2.93,1.36c0.7,0.24,1.41,0.41,2.14,0.53c2.34,0.35,4.73,0.17,6.99-0.5
		c2.14-0.87,3.96-2.36,5.24-4.28c0.79-1.24,1.41-2.58,1.83-3.99c0.32-0.99,0.53-2.01,0.61-3.04c0.07-0.51,0.1-1.03,0.11-1.54
		c0-0.52,0-1.02-0.02-1.53L-463.31-1827.23z"/>
	<path id="Shape_3" class="st1" d="M-467.9-1827.23c-0.02-1.04-0.08-2.06-0.17-3.06c-0.19-2.1-0.57-4.17-1.13-6.2
		c-0.85-2.98-2.51-5.65-4.8-7.73c-0.53-0.52-1.1-1.01-1.7-1.47c-0.35-0.27-0.69-0.53-1.04-0.79c-1.15-0.86-2.28-1.64-3.39-2.31
		c-0.72-0.46-1.42-0.86-2.14-1.22c-2.66-1.43-5.55-2.41-8.54-2.88c-0.67-0.11-1.35-0.18-2.03-0.23c-0.84,0.05-1.7,0.12-2.55,0.21
		c-1.1,0.12-2.19,0.26-3.29,0.43c-0.93,0.14-1.86,0.29-2.78,0.46c-1.47,0.26-2.92,0.53-4.32,0.82c-1.22,0.24-2.37,0.53-3.44,0.86
		c-1.01,0.3-2.01,0.66-2.98,1.08c-1.82,0.74-3.47,1.84-4.86,3.22c-1.41,1.5-2.59,3.2-3.5,5.04c-0.37,0.75-0.7,1.54-1.01,2.35
		c-0.06,0.17-0.12,0.37-0.2,0.61c-0.44,1.47-1.04,4-1.04,4c-0.15,0.73-0.25,1.47-0.27,2.22c-0.09,1.01-0.05,2.03,0.11,3.03v0.02
		c0.2,2.83,2.02,5.3,4.66,6.33c0.48,0.18,0.97,0.31,1.47,0.41h0.05c4.54-0.85,9.15-1.31,13.77-1.37c0.32,0.02,0.64,0.05,0.95,0.08
		c1.21-0.11,2.42-0.13,3.64-0.08c1.02,0.05,2.03,0.19,3.03,0.43c2.07,0.51,3.97,1.59,5.47,3.1c2.03,2.14,4.31,4.03,6.79,5.62
		c0.93,0.56,1.91,1.01,2.93,1.36c0.7,0.24,1.41,0.41,2.14,0.53c0.81-0.12,1.62-0.29,2.41-0.5c2.14-0.87,3.96-2.36,5.24-4.28
		c0.79-1.24,1.41-2.58,1.83-3.99c0.32-0.99,0.53-2.01,0.61-3.04c0.07-0.51,0.1-1.03,0.11-1.54
		C-467.88-1826.23-467.88-1826.73-467.9-1827.23L-467.9-1827.23z"/>
	<path id="Shape_5" class="st1" d="M-528.55-1841.74c-0.15,0.4-0.14,0.83,0.02,1.22l0.15,0.25c0.06,0.08,0.14,0.16,0.22,0.22
		c0.07,0.07,0.15,0.13,0.23,0.17c0.09,0.05,0.18,0.09,0.27,0.12c0.39,0.11,0.8,0.09,1.17-0.07c0.17-0.09,0.33-0.2,0.46-0.34
		c0.4-0.43,0.51-1.06,0.29-1.6c-0.08-0.18-0.2-0.35-0.34-0.49c-0.14-0.15-0.3-0.26-0.48-0.35c-0.37-0.16-0.8-0.17-1.18-0.02
		C-528.1-1842.44-528.4-1842.13-528.55-1841.74z"/>
	<path id="Shape_6" class="st1" d="M-523.83-1776.81c-2.53-0.04-4.73-1.74-5.41-4.17c-0.49-1.31-0.67-2.72-0.51-4.11
		c0.05-0.4,0.14-0.8,0.23-1.2c0.19-0.6,0.25-1.23,0.16-1.85c-0.12-0.47-0.47-0.71-1.37-1.22c-0.36-0.21-0.73-0.41-1.07-0.66
		c-0.49-0.35-0.82-0.89-0.9-1.49c-0.06-0.77,0.11-1.54,0.49-2.21c-0.52-0.4-1.08-0.84-1.41-1.13c-1.41-1.19-0.47-2.85,0.09-3.84
		c0.2-0.36,0.44-0.76,0.66-1.25c0.21-0.48,0.27-1.01,0.17-1.53c-0.08-0.41-1.18-0.97-1.83-1.3c-0.56-0.26-1.09-0.57-1.59-0.92
		c-1.08-0.62-1.88-1.65-2.21-2.85c-0.23-1.59,0.92-3.15,2.01-4.49c2.62-3.38,4.86-7.02,6.69-10.88c0.12-0.2,0.21-0.42,0.27-0.65
		c0-0.44-0.5-0.92-1.25-1.61c-1.13-0.83-1.92-2.04-2.23-3.4c-0.09-0.88,0.06-1.76,0.41-2.57v-0.01l0,0l0.03-0.06
		c0.03-0.07,0.06-0.14,0.09-0.2c0.78-1.71,1.47-3.46,2.06-5.24c0.2-0.82,1.03-1.33,1.85-1.13c0.82,0.2,1.33,1.03,1.13,1.85l0,0
		c-0.63,1.98-1.39,3.92-2.27,5.8l-0.03,0.06c-0.15,0.34-0.24,0.7-0.24,1.07c0.07,0.47,0.65,1.01,1.27,1.57
		c1.27,0.89,2.08,2.28,2.24,3.82c-0.03,0.73-0.23,1.44-0.6,2.07c-1.91,4.02-4.25,7.83-6.98,11.35c-1.17,1.44-1.41,1.99-1.42,2.22
		c0.28,0.26,0.58,0.51,0.9,0.73c0.4,0.28,0.83,0.53,1.27,0.74c1.31,0.67,3.1,1.58,3.46,3.46c0.22,1.15,0.08,2.35-0.41,3.42
		c-0.26,0.55-0.53,1.02-0.76,1.44c-0.08,0.14-0.17,0.31-0.25,0.44c0.63,0.5,1.5,1.16,1.87,1.43c0.68,0.5,0.82,1.46,0.32,2.14
		c-0.01,0.01-0.02,0.02-0.02,0.03c-0.23,0.3-0.42,0.61-0.59,0.95l0.33,0.19c1.35,0.58,2.38,1.72,2.82,3.13
		c0.22,1.08,0.17,2.2-0.14,3.27c-0.07,0.32-0.14,0.63-0.18,0.95c-0.09,0.91,0.04,1.84,0.37,2.7c0.33,1.42,1.72,2.33,3.15,2.06
		c4.44-1.08,8.83-2.41,13.13-3.96c0.8-0.28,1.67,0.14,1.94,0.94c0.28,0.8-0.14,1.67-0.94,1.94l0,0c-4.43,1.6-8.94,2.96-13.51,4.07
		C-522.99-1776.85-523.41-1776.8-523.83-1776.81z M-531.63-1797.17l0.03,0.02L-531.63-1797.17z"/>
	<path id="Shape_7" class="st1" d="M-502.03-1769.16c-0.7,0-1.32-0.48-1.48-1.16c-0.59-2.41-2.95-9.05-6.68-10.74
		c-0.77-0.35-1.11-1.25-0.77-2.02c0.17-0.39,0.5-0.68,0.9-0.82c1.46-0.5,2.8-0.97,3.89-1.35c1.2-0.42,2.11-0.74,2.56-0.88
		c6.35-1.99,7.64-4.29,7.6-5.86c-0.02-0.84,0.65-1.54,1.49-1.57c0.83,0.01,1.52,0.66,1.57,1.49c0.09,3.82-3.19,6.79-9.73,8.85
		c-0.44,0.14-1.31,0.44-2.47,0.85c-0.34,0.12-0.71,0.25-1.1,0.39c2.53,2.8,4.37,6.14,5.39,9.76l34.66-0.09l-0.11-0.17
		c-0.44-0.63-0.83-1.29-1.18-1.97c-0.76-1.55-1.39-3.15-1.9-4.8c-0.93-3.13-1.57-6.33-1.92-9.57c-0.61-5.11,0.16-10.29,2.22-15
		c1.22-2.55,2.73-4.94,4.5-7.15c0.89-1.2,1.81-2.44,2.61-3.69c2.12-3.27,3.26-7.07,3.29-10.97c0.09-4.08-0.41-8.16-1.48-12.1
		c-1.35-4.64-4.19-8.7-8.08-11.57c-8.01-6.28-15.43-8.89-24.07-8.44c-4.82,0.34-9.61,1.02-14.34,2.06
		c-6.25,1.26-10.73,3.4-13.69,6.51l-0.02,0.02c-0.65,0.69-1.27,1.43-1.84,2.19c-0.29,0.38-0.56,0.77-0.82,1.18
		c-0.47,0.67-1.37,0.87-2.08,0.46c-0.71-0.42-0.95-1.34-0.52-2.06c0.02-0.03,0.03-0.06,0.05-0.08c0.29-0.45,0.6-0.89,0.93-1.32
		c0.65-0.87,1.35-1.71,2.1-2.5l0,0c3.41-3.6,8.41-6.02,15.31-7.4c4.87-1.06,9.81-1.77,14.78-2.11c9.43-0.48,17.49,2.32,26.11,9.08
		c4.39,3.28,7.59,7.89,9.14,13.14c1.15,4.23,1.69,8.59,1.6,12.97c-0.03,4.46-1.33,8.81-3.74,12.56c-0.86,1.36-1.81,2.64-2.73,3.88
		c-1.63,2.02-3.02,4.22-4.15,6.55c-1.85,4.21-2.54,8.84-2,13.41c0.32,3.06,0.92,6.08,1.79,9.03c0.46,1.5,1.04,2.96,1.73,4.37
		c0.29,0.56,0.62,1.1,0.98,1.62c0.65,0.9,1.18,1.89,1.55,2.93c0.25,0.81-0.21,1.66-1.01,1.91c-0.14,0.04-0.29,0.07-0.44,0.07
		l-38.35,0.11l0,0L-502.03-1769.16z"/>
	<path id="Shape_8" class="st1" d="M-478.58-1793.61c-0.84,0-1.53-0.68-1.53-1.53c0-2.7,0-3.82-5.5-7.95
		c-5.79-4.34-3.41-12.06-2.54-14.32c0.3-0.79,1.19-1.18,1.98-0.88c0.79,0.3,1.18,1.19,0.88,1.98l0,0c-0.87,2.25-2.44,7.8,1.53,10.78
		c3.82,2.87,5.47,4.72,6.19,6.5c0.38-1.21,0.56-2.48,0.53-3.75c0-4.93,3.32-8.81,6.57-11.95c0.29-0.28,0.67-0.43,1.07-0.43l0.05,1.5
		l1.08,1.08c-0.04,0.04-0.09,0.08-0.14,0.12c-2.78,2.68-5.57,5.93-5.57,9.68c0,6.86-3.5,8.81-3.9,9.02
		C-478.11-1793.66-478.34-1793.61-478.58-1793.61z"/>
	<path id="Shape_9" class="st0" d="M-519.84-1828.75h-3.06c-0.84,0-1.53-0.68-1.53-1.53c0-0.84,0.68-1.53,1.53-1.53l0,0h3.06
		c0.84,0,1.53-0.68,1.53-1.53c-0.03-0.84,0.64-1.55,1.48-1.57c0.84-0.03,1.55,0.64,1.57,1.48c0,0.03,0,0.06,0,0.09
		C-515.25-1830.81-517.31-1828.75-519.84-1828.75C-519.84-1828.75-519.84-1828.75-519.84-1828.75z"/>
	<path id="Shape_10" class="st0" d="M-516.78-1820.49c-0.84,0-1.53-0.68-1.53-1.53v-2.16c0.03-0.84,0.73-1.51,1.57-1.48
		c0.81,0.02,1.46,0.67,1.48,1.48v2.16C-515.25-1821.17-515.94-1820.49-516.78-1820.49z"/>
	<path id="Shape_11" class="st0" d="M-506.09-1827.23h-1.53c-2.53,0-4.58-2.05-4.58-4.58v-1.53c0-2.53,2.05-4.58,4.58-4.58h1.53
		c0.84,0,1.53,0.68,1.53,1.53s-0.68,1.53-1.53,1.53h-1.53c-0.84,0-1.53,0.68-1.53,1.53v1.53c0,0.84,0.68,1.53,1.53,1.53h1.53
		c0.84-0.03,1.55,0.64,1.57,1.48c0.03,0.84-0.64,1.55-1.48,1.57C-506.03-1827.23-506.06-1827.23-506.09-1827.23L-506.09-1827.23z"/>
	<path id="Shape_12" class="st0" d="M-515.25-1837.92h-5.99c-0.84-0.03-1.51-0.73-1.48-1.57c0.02-0.81,0.67-1.46,1.48-1.48h5.99
		c0.84,0.03,1.51,0.73,1.48,1.57C-513.8-1838.6-514.45-1837.95-515.25-1837.92z"/>
	<path id="Shape_13" class="st0" d="M-507.61-1840.98c-2.53,0-4.58-2.05-4.58-4.58v-4.29c-0.03-0.84,0.64-1.55,1.48-1.57
		c0.84-0.03,1.55,0.64,1.57,1.48c0,0.03,0,0.06,0,0.09v4.29c0,0.84,0.68,1.53,1.53,1.53c0.84,0,1.53,0.68,1.53,1.53
		S-506.77-1840.98-507.61-1840.98L-507.61-1840.98z"/>
	<path id="Shape_14" class="st0" d="M-499.97-1830.28h-1.53c-0.84,0-1.53-0.68-1.53-1.53s0.68-1.53,1.53-1.53h1.53
		c0.84,0,1.53-0.68,1.53-1.53v-3.06c0-0.84,0.68-1.53,1.53-1.53s1.53,0.68,1.53,1.53v3.06
		C-495.39-1832.34-497.44-1830.28-499.97-1830.28z"/>
	<path id="Shape_15" class="st0" d="M-492.33-1837.92c-0.84,0-1.53-0.68-1.53-1.53l0,0v-1.53c0-0.84-0.68-1.53-1.53-1.53h-3.06
		c-0.84,0-1.53,0.68-1.53,1.53v1.53c-0.03,0.84-0.73,1.51-1.57,1.48c-0.81-0.02-1.46-0.67-1.48-1.48v-1.53
		c0-2.53,2.05-4.58,4.58-4.58h3.06c2.53,0,4.58,2.05,4.58,4.58v1.53C-490.8-1838.61-491.49-1837.92-492.33-1837.92z"/>
	<path id="Shape_16" class="st0" d="M-499.97-1848.62c-0.84,0-1.53-0.68-1.53-1.53v-1.53c0.03-0.84,0.73-1.51,1.57-1.48
		c0.81,0.02,1.46,0.67,1.48,1.48v1.53C-498.45-1849.3-499.13-1848.62-499.97-1848.62z"/>
	<path id="Shape_17" class="st0" d="M-493.86-1848.62c-0.84,0-1.53-0.68-1.53-1.53v-2.9c0.03-0.84,0.73-1.51,1.57-1.48
		c0.81,0.02,1.46,0.67,1.48,1.48v2.9C-492.33-1849.3-493.02-1848.62-493.86-1848.62z"/>
	<path id="Shape_18" class="st0" d="M-484.69-1844.04h-3.06c-0.84,0-1.53-0.68-1.53-1.53v-7.5c0.03-0.84,0.73-1.51,1.57-1.48
		c0.81,0.02,1.46,0.67,1.48,1.48v5.98h1.53c0.84-0.03,1.55,0.64,1.57,1.48c0.03,0.84-0.64,1.55-1.48,1.57
		C-484.63-1844.03-484.66-1844.03-484.69-1844.04z"/>
	<path id="Shape_19" class="st0" d="M-496.92-1821.73c-0.84,0-1.53-0.68-1.53-1.53v-2.44c0.03-0.84,0.73-1.51,1.57-1.48
		c0.81,0.02,1.46,0.67,1.48,1.48v2.44C-495.39-1822.41-496.07-1821.73-496.92-1821.73z"/>
	<path id="Shape_20" class="st0" d="M-486.22-1825.7h-1.53c-2.53,0-4.58-2.05-4.58-4.58v-1.53c0-0.84,0.68-1.53,1.53-1.53
		s1.53,0.68,1.53,1.53v1.53c0,0.84,0.68,1.53,1.53,1.53c0,0,0,0,0,0h1.53c0.84,0.03,1.51,0.73,1.48,1.57
		C-484.76-1826.37-485.41-1825.72-486.22-1825.7z"/>
	<path id="Shape_21" class="st0" d="M-480.11-1831.81h-1.53c-2.53-0.04-4.55-2.13-4.51-4.66c0.04-2.47,2.03-4.46,4.51-4.51h1.53
		c0.84,0.03,1.51,0.73,1.48,1.57c-0.02,0.81-0.67,1.46-1.48,1.48h-1.53c-0.84,0-1.53,0.68-1.53,1.53c0,0.84,0.68,1.53,1.53,1.53
		h1.53c0.84,0.03,1.51,0.73,1.48,1.57C-478.65-1832.49-479.3-1831.84-480.11-1831.81z"/>
	<path id="Shape_22" class="st0" d="M-477.05-1842.51c-0.84,0-1.53-0.68-1.53-1.53v-4.58c0.03-0.84,0.73-1.51,1.57-1.48
		c0.81,0.02,1.46,0.67,1.48,1.48v4.58C-475.52-1843.19-476.21-1842.51-477.05-1842.51L-477.05-1842.51z"/>
	<path id="Shape_23" class="st0" d="M-473.99-1836.4c-0.84,0-1.53-0.68-1.53-1.53c0-0.84,0.68-1.53,1.53-1.53l0,0
		c0.84,0,1.53-0.68,1.53-1.53v-4.57c0.03-0.84,0.73-1.51,1.57-1.48c0.81,0.02,1.46,0.67,1.48,1.48v4.57
		C-469.41-1838.45-471.46-1836.4-473.99-1836.4z"/>
	<path id="Shape_24" class="st0" d="M-477.05-1824.17h-1.53c-0.84,0-1.53-0.68-1.53-1.53s0.68-1.53,1.53-1.53h1.53
		c0.84,0,1.53-0.68,1.53-1.53v-3.06c0.03-0.84,0.73-1.51,1.57-1.48c0.81,0.02,1.46,0.67,1.48,1.48v3.06
		C-472.47-1826.22-474.52-1824.17-477.05-1824.17z"/>
	<path id="Shape_25" class="st0" d="M-481.63-1811.95c-0.84,0-1.53-0.68-1.53-1.53c0,0,0,0,0,0v-3.06c0-2.53,2.05-4.58,4.58-4.58
		c0,0,0,0,0,0h4.58c0.84,0,1.53,0.68,1.53,1.53s-0.68,1.53-1.53,1.53h-4.58c-0.84,0-1.53,0.68-1.53,1.53v3.06
		C-480.11-1812.63-480.79-1811.95-481.63-1811.95L-481.63-1811.95z"/>
	<path id="Shape_26" class="st0" d="M-463.36-1827.23h-4.52c-0.84-0.03-1.51-0.73-1.48-1.57c0.02-0.81,0.67-1.46,1.48-1.48h4.52
		c0.84,0.03,1.51,0.73,1.48,1.57C-461.9-1827.9-462.55-1827.25-463.36-1827.23z"/>
	<path id="Shape_27" class="st0" d="M-463.62-1821.11h-4.26c-0.84-0.03-1.51-0.73-1.48-1.57c0.02-0.81,0.67-1.46,1.48-1.48h4.26
		c0.84-0.03,1.55,0.64,1.57,1.48c0.03,0.84-0.64,1.55-1.48,1.57C-463.56-1821.11-463.59-1821.11-463.62-1821.11z"/>
	<path id="Shape_28" class="st1" d="M-475.86-1810.64c-6.84,0-11.22-4.28-15.17-8.14c-4.23-4.14-9.16-3.43-18.96-2.02l-2.06,0.3
		c-4.42,0.63-7.79-0.24-9.98-2.57c-3.47-3.68-2.61-9.54-2.27-11.24c0.09-0.4,0.83-3.56,1.3-4.84c1.06-2.94,2.71-5.63,4.84-7.91
		c2.48-2.61,6.54-4.51,12.07-5.62c4.57-1,9.21-1.67,13.88-2c0.59-0.03,1.15-0.04,1.72-0.04c7.15,0,13.41,2.42,20.32,7.84
		c3.37,2.47,5.84,5.98,7.02,9.99c0.99,3.65,1.45,7.43,1.37,11.22c-0.02,3.33-0.99,6.58-2.79,9.37c-1.48,2.24-3.62,3.97-6.13,4.94
		C-472.37-1810.9-474.11-1810.65-475.86-1810.64z M-471.5-1814.33l0.41,1.47L-471.5-1814.33c1.77-0.76,3.28-2.02,4.35-3.62
		c1.5-2.32,2.3-5.02,2.32-7.78c0.08-3.49-0.34-6.97-1.25-10.34c-1.01-3.38-3.11-6.34-5.96-8.42c-6.93-5.44-12.84-7.49-20-7.15
		c-4.52,0.33-9.01,0.98-13.44,1.95c-4.91,0.99-8.43,2.58-10.46,4.72c-1.85,1.98-3.27,4.32-4.18,6.86c-0.34,0.92-0.97,3.51-1.18,4.43
		c-0.55,2.73-0.45,6.43,1.51,8.5c1.48,1.57,3.94,2.12,7.34,1.64l2.06-0.29c10.11-1.45,16.22-2.33,21.53,2.86
		C-483.38-1815.58-479.19-1812.21-471.5-1814.33L-471.5-1814.33z"/>
</g>
</svg>
