<?xml version="1.0" encoding="UTF-8"?>
<!DOCTYPE svg PUBLIC "-//W3C//DTD SVG 1.1//EN" "http://www.w3.org/Graphics/SVG/1.1/DTD/svg11.dtd">
<!-- Creator: CorelDRAW 2017 -->
<svg xmlns="http://www.w3.org/2000/svg" xml:space="preserve" width="20mm" height="20mm" version="1.1" style="shape-rendering:geometricPrecision; text-rendering:geometricPrecision; image-rendering:optimizeQuality; fill-rule:evenodd; clip-rule:evenodd"
viewBox="0 0 2000 2000"
 xmlns:xlink="http://www.w3.org/1999/xlink">
 <defs>
  <style type="text/css">
   <![CDATA[
    .fil0 {fill:none}
    .fil1 {fill:#000096}
   ]]>
  </style>
 </defs>
 <g id="Layer_x0020_1">
  <metadata id="CorelCorpID_0Corel-Layer"/>
  <rect class="fil0" width="2000" height="2000"/>
  <g id="_1772739742720">
   <path class="fil1" d="M726.38 915.33c-53.34,-165.32 -111.07,-302.81 -24.52,-475.18 20.47,-40.76 64.61,-96.39 98.45,-124.67 188.58,-157.57 506.93,-105.71 630.33,153.03 78.98,165.57 25.44,338.04 -51.8,463.76 3.75,-33.16 7.27,-64.22 7.24,-103.82 -0.02,-26.27 -2.95,-81.45 1.1,-104.47l26.51 -0.22 0 -55.22c-56.47,0 -108.99,8.58 -140.33,-26.7 -24.8,-27.91 -65.33,-201.57 -79.89,-250.24 -11.7,-39.15 -41.11,-26.37 -49.05,-16.92 -10.02,11.91 -51.24,170.02 -57.39,191.8 -13.77,48.81 -29.45,77.78 -71.21,93.85 -47.66,18.35 -250.41,4.38 -320.29,8.75l-0.01 54.29 26.25 0.77 4.61 191.19zm240.64 -191.55c176.2,0 168.53,-172.38 199.01,-227.02 27.94,111.77 40.62,217.83 164.82,226.5 -0.16,104.07 11.25,194.32 -37.17,276.47 -88.16,149.6 -273.86,185.25 -419.85,70.82 -108.79,-85.29 -95.33,-217.16 -95.32,-346.77l188.51 0zm318.03 716.42c-14.35,7.3 -225.1,5.46 -256.27,2.95l0.14 52.5 2.84 0.07 253.46 -0.48c72.91,3.31 135.86,-57.82 153.19,-136.14 82.92,5.59 136.08,53.53 140.61,136 4.61,84.01 2.4,193.16 0.1,278.27l-1049.03 0 -0.45 -82.71 -53.76 -0.16c-1.49,9.45 -6.56,113.63 5.46,128.48 5.27,6.51 -0.66,-0.07 5.23,4.9l6.33 4.72 1123.29 0c0.7,-0.54 1.88,-2.1 2.23,-1.46 0.34,0.63 1.72,-1.12 2.18,-1.47 0.56,-0.42 3.31,-2.33 4.01,-2.95 10.68,-9.45 10.1,-19.93 10.2,-36.1l-0.11 -178.12c0,-79.02 8.79,-151.1 -28.46,-212 -84.65,-138.39 -246,-79.09 -385.54,-93.45l-0.32 -154.09c42.83,-29.57 75.99,-53.19 101.94,-93.73 44.2,-0.02 48.42,5.95 67.59,-27.24 92.02,-159.33 170.94,-302.27 118.16,-507.44 -47.54,-184.86 -204.26,-316.89 -384.84,-343.38l-22.21 -5.77 -90.66 0c-13.32,6.24 -72.62,11.65 -127.15,32.71 -73.27,28.31 -138.47,77.35 -184.19,139.56 -79.88,108.67 -116.48,235.75 -87.82,377.73 17.08,84.68 55.73,168.38 73.67,250.42 -54.21,3.57 -190.75,-22.67 -208.46,93.64 -6.66,43.74 7.52,53.84 19.2,84.01 -117.77,27.36 -185.66,212.04 -75.43,316.46 15.35,14.54 25.09,25.06 47.61,36.45 16.72,8.46 51.92,16.04 62.21,21.94 10.49,10.33 11.2,125.2 152.64,161.29 34.64,8.84 114.82,6.88 148.5,-2.63 130.37,-36.83 182.04,-192.9 103.08,-300.68 -50.72,-69.24 -123.73,-83.99 -238.69,-78l0.05 54.41c92.4,4.16 131.05,-11.13 185.86,47.32 59.79,63.78 62.54,249.17 -170.18,228.28 -62.93,-5.64 -113.25,-51.61 -122.6,-109.52l134.51 -0.2 -0.04 -54.03c-61.27,-8.28 -155.52,9.95 -210.95,-9.25 -124.88,-43.27 -120.27,-216.42 -2.82,-258.78 55.4,-19.99 150.5,-3.01 213.19,-10.03l0.7 -52.93c-34.88,-6.63 -98.96,0.79 -138.12,-1.67 -36.62,-2.3 -68.79,-36.68 -50.23,-78.12 21.05,-47.02 106.67,-30.33 179.68,-32.06 29.28,-0.69 29.26,-8.6 37.86,-31.15 24.53,64.18 84.19,122.27 136.5,151.6l0 183.28 55.24 -0.07 0 -156.85c123.85,26.72 98.44,25.59 220.8,0.16 0.28,33.45 0.08,66.97 0.08,100.43 0,30.28 -7.35,72.28 18.08,81.56 14.94,5.45 169.25,2.27 198.36,2.47 -9.98,40.15 -47.94,81.32 -96.45,81.05z"/>
   <path class="fil1" d="M1156.54 972.36l-38.7 0.17c-8.96,34.37 -21.83,61.77 -63.43,61.62 -41.38,-0.15 -53.66,-27.04 -63.17,-61.6l-38.73 -0.15c-5.32,53.98 47.54,103.11 101.9,103.13 54.37,0.02 108.68,-48.91 102.13,-103.17z"/>
   <path class="fil1" d="M1199.22 835.72c-5.94,4.42 6.36,2.24 -5.6,2.48 -7.74,0.16 -2.61,-0.18 -7.01,-3.27 2.61,-2.39 4.95,-18.54 12.61,0.79zm-19.32 -47.58c-61.49,17.96 -34.48,107.15 24.2,92.82 61.02,-14.89 39.49,-111.43 -24.2,-92.82z"/>
   <path class="fil1" d="M910.46 834.93c6.93,-11.45 5.22,-12.25 12.17,0 -8.1,5.81 11.45,4.22 -4.74,2.86 -7.1,-0.6 -2.78,0.1 -7.43,-2.86zm-7.58 -46.14c-61.99,19.19 -32.62,109.84 28.46,91.35 53.89,-16.32 35.14,-111.04 -28.46,-91.35z"/>
   <path class="fil1" d="M1285.22 1495.24l-253.46 0.48 -2.84 -0.07 -0.14 -52.5c31.17,2.51 241.92,4.35 256.27,-2.95l-237.2 0.27c-20.54,-0.25 -22.2,-4.36 -22.44,15.6 -0.16,13.45 -0.65,27.68 1.38,40.88 21.85,5.63 246.24,4.37 258.43,-1.71z"/>
   <path class="fil1" d="M1186.61 834.93c4.4,3.09 -0.73,3.43 7.01,3.27 11.96,-0.24 -0.34,1.94 5.6,-2.48 -7.66,-19.33 -10,-3.18 -12.61,-0.79z"/>
   <path class="fil1" d="M922.63 834.93c-6.95,-12.25 -5.24,-11.45 -12.17,0 4.65,2.96 0.33,2.26 7.43,2.86 16.19,1.36 -3.36,2.95 4.74,-2.86z"/>
  </g>
 </g>
</svg>
